<svg id="visual" viewBox="0 0 900 600" width="900" height="600" xmlns="http://www.w3.org/2000/svg" xmlns:xlink="http://www.w3.org/1999/xlink" version="1.1"><rect x="0" y="0" width="900" height="600" fill="#001220"></rect><defs><linearGradient id="grad1_0" x1="33.3%" y1="0%" x2="100%" y2="100%"><stop offset="20%" stop-color="#10b981" stop-opacity="1"></stop><stop offset="80%" stop-color="#10b981" stop-opacity="1"></stop></linearGradient></defs><defs><linearGradient id="grad1_1" x1="33.3%" y1="0%" x2="100%" y2="100%"><stop offset="20%" stop-color="#10b981" stop-opacity="1"></stop><stop offset="80%" stop-color="#007e7e" stop-opacity="1"></stop></linearGradient></defs><defs><linearGradient id="grad1_2" x1="33.3%" y1="0%" x2="100%" y2="100%"><stop offset="20%" stop-color="#00455a" stop-opacity="1"></stop><stop offset="80%" stop-color="#007e7e" stop-opacity="1"></stop></linearGradient></defs><defs><linearGradient id="grad1_3" x1="33.3%" y1="0%" x2="100%" y2="100%"><stop offset="20%" stop-color="#00455a" stop-opacity="1"></stop><stop offset="80%" stop-color="#001220" stop-opacity="1"></stop></linearGradient></defs><defs><linearGradient id="grad2_0" x1="0%" y1="0%" x2="66.7%" y2="100%"><stop offset="20%" stop-color="#10b981" stop-opacity="1"></stop><stop offset="80%" stop-color="#10b981" stop-opacity="1"></stop></linearGradient></defs><defs><linearGradient id="grad2_1" x1="0%" y1="0%" x2="66.7%" y2="100%"><stop offset="20%" stop-color="#007e7e" stop-opacity="1"></stop><stop offset="80%" stop-color="#10b981" stop-opacity="1"></stop></linearGradient></defs><defs><linearGradient id="grad2_2" x1="0%" y1="0%" x2="66.7%" y2="100%"><stop offset="20%" stop-color="#007e7e" stop-opacity="1"></stop><stop offset="80%" stop-color="#00455a" stop-opacity="1"></stop></linearGradient></defs><defs><linearGradient id="grad2_3" x1="0%" y1="0%" x2="66.7%" y2="100%"><stop offset="20%" stop-color="#001220" stop-opacity="1"></stop><stop offset="80%" stop-color="#00455a" stop-opacity="1"></stop></linearGradient></defs><g transform="translate(900, 0)"><path d="M0 405.6C-77.1 398.6 -154.2 391.5 -202.8 351.3C-251.4 311 -271.5 237.6 -300.5 173.5C-329.6 109.4 -367.6 54.7 -405.6 0L0 0Z" fill="#002a3e"></path><path d="M0 304.2C-57.8 298.9 -115.7 293.6 -152.1 263.5C-188.5 233.3 -203.6 178.2 -225.4 130.1C-247.2 82.1 -275.7 41 -304.2 0L0 0Z" fill="#006170"></path><path d="M0 202.8C-38.6 199.3 -77.1 195.8 -101.4 175.6C-125.7 155.5 -135.7 118.8 -150.3 86.8C-164.8 54.7 -183.8 27.4 -202.8 0L0 0Z" fill="#009c84"></path><path d="M0 101.4C-19.3 99.6 -38.6 97.9 -50.7 87.8C-62.8 77.8 -67.9 59.4 -75.1 43.4C-82.4 27.4 -91.9 13.7 -101.4 0L0 0Z" fill="#10b981"></path></g><g transform="translate(0, 600)"><path d="M0 -405.6C76.4 -398.2 152.8 -390.7 202.8 -351.3C252.8 -311.8 276.3 -240.4 305.7 -176.5C335.1 -112.6 370.4 -56.3 405.6 0L0 0Z" fill="#002a3e"></path><path d="M0 -304.2C57.3 -298.6 114.6 -293 152.1 -263.5C189.6 -233.9 207.2 -180.3 229.3 -132.4C251.3 -84.5 277.8 -42.2 304.2 0L0 0Z" fill="#006170"></path><path d="M0 -202.8C38.2 -199.1 76.4 -195.4 101.4 -175.6C126.4 -155.9 138.2 -120.2 152.9 -88.3C167.6 -56.3 185.2 -28.2 202.8 0L0 0Z" fill="#009c84"></path><path d="M0 -101.4C19.1 -99.5 38.2 -97.7 50.7 -87.8C63.2 -78 69.1 -60.1 76.4 -44.1C83.8 -28.2 92.6 -14.1 101.4 0L0 0Z" fill="#10b981"></path></g></svg>